<?xml version="1.0" encoding="UTF-8"?>
<svg id="Layer_1" xmlns="http://www.w3.org/2000/svg" viewBox="0 0 1280 306.59">
  <defs>
    <style>
      .cls-1 {
        font-family: ArchivoBlack-Regular, 'Archivo Black';
        font-size: 109.1px;
      }

      .cls-1, .cls-2 {
        fill: #fff;
      }

      .cls-3 {
        letter-spacing: .02em;
      }

      .cls-4 {
        letter-spacing: .02em;
      }
    </style>
  </defs>
  <path class="cls-2" d="M169.01,73.25c-62.88-17.39-27.71-41.66-44.3-67.95,0,0,46.79,13.86,47.53,60.14,0,0-15.68-25.54-13.36-19.74,2.41,5.8,10.12,27.55,10.12,27.55h0ZM113.68,20.92c-38.16,132.63,151.64,192.27,1.16,285.68,189.96-59.72-22.65-170.18-1.16-285.68h0ZM88.04,0c-21.15,24.44-22.4,28.14-35.59,59.72-4.31-4.45-8.71-10.33-12.19-18.31,0,0,2.16,12.68,10.78,21.67-23.14,51.57-59.06,18.23-30.78,53.09-2.99,17.05-18.25,19.4-3.4,26.46-21.65,7.98-3.48,13.86-4.48,19.4-1.16,6.47-10.87,9.16-12.36,23.52-1.49,14.28,50.19,20.92,66.69,29.9,31.36,17.14,38.99,53.84,26.38,88.03-6.22,16.72,97.63-37.55,3.9-173.2C60.42,79.71,88.46-.25,88.04,0h0ZM180.2,78.12c48.36,45.61,6.47,50.31,9.71,81.65,0,0-35.5-34.78-16.01-76.27,0,0,2.82,30.24,3.24,23.94.41-6.3,3.07-29.32,3.07-29.32h0ZM191.98,79.71c40.48-23.69,33.93,6.97,54.83,11.84,0,0-30.53,17.14-52.84-6.13,0,0,20.07,4.96,16.18,3.19-3.9-1.76-18.17-8.9-18.17-8.9h0ZM180.04,72.41c64.29-10.33,31.77-38.39,50.93-62.66,0,0-47.95,8.57-53.34,54.51,0,0,18.17-23.6,15.26-18.14-2.99,5.54-12.86,26.29-12.86,26.29h0ZM175.39,45.78c-20.07-22.68-1-23.02-1.24-37.3,0,0,14.68,17.22,4.23,35.2,0,0-.08-13.78-.5-11-.41,2.86-2.49,13.1-2.49,13.1h0Z"/>
  <text class="cls-1" transform="translate(294.96 131.8) scale(1.03 1)"><tspan x="0" y="0" xml:space="preserve">   PV MediSpa</tspan><tspan x="0" y="114.37">#Pu</tspan><tspan class="cls-4" x="223.54" y="114.37">r</tspan><tspan x="274.71" y="114.37">sue </tspan><tspan class="cls-3" x="523.23" y="114.37">V</tspan><tspan x="609.86" y="114.37">itality</tspan></text>
</svg>