<?xml version="1.0" encoding="UTF-8"?>
<svg id="Layer_1" xmlns="http://www.w3.org/2000/svg" viewBox="0 0 1280 367.14">
  <defs>
    <style>
      .cls-1 {
        fill: #fff;
      }
    </style>
  </defs>
  <path class="cls-1" d="M207.51,87.71c-77.2-20.82-34.02-49.89-54.39-81.37,0,0,57.45,16.6,58.36,72.02,0,0-19.25-30.58-16.4-23.64,2.95,6.94,12.43,32.99,12.43,32.99h0ZM139.58,25.05c-46.85,158.83,186.19,230.24,1.43,342.1,233.24-71.52-27.81-203.79-1.43-342.1h0ZM108.1,0c-25.97,29.27-27.5,33.7-43.69,71.52-5.3-5.33-10.69-12.37-14.97-21.93,0,0,2.65,15.19,13.24,25.95-28.42,61.76-72.52,21.83-37.79,63.57-3.67,20.42-22.41,23.24-4.18,31.68-26.58,9.56-4.28,16.6-5.5,23.24-1.43,7.75-13.34,10.96-15.18,28.16-1.83,17.1,61.62,25.05,81.89,35.81,38.5,20.52,47.87,64.48,32.39,105.42-7.64,20.02,119.88-44.96,4.79-207.41C74.19,95.46,108.61-.3,108.1,0h0ZM221.26,93.55c59.38,54.62,7.94,60.25,11.92,97.77,0,0-43.59-41.64-19.66-91.33,0,0,3.46,36.21,3.97,28.67.51-7.54,3.77-35.1,3.77-35.1h0ZM235.73,95.46c49.7-28.37,41.66,8.35,67.32,14.18,0,0-37.48,20.52-64.88-7.34,0,0,24.65,5.93,19.86,3.82-4.79-2.11-22.31-10.66-22.31-10.66h0ZM221.06,86.71c78.94-12.37,39.01-45.97,62.54-75.04,0,0-58.87,10.26-65.49,65.28,0,0,22.31-28.26,18.74-21.73-3.67,6.64-15.79,31.48-15.79,31.48h0ZM215.36,54.82c-24.65-27.16-1.22-27.56-1.53-44.66,0,0,18.03,20.62,5.19,42.15,0,0-.1-16.5-.61-13.18-.51,3.42-3.06,15.69-3.06,15.69h0Z"/>
  <g>
    <path class="cls-1" d="M473.44,61.22c3.76,2.15,6.7,5.11,8.8,8.87,2.11,3.76,3.16,7.97,3.16,12.64v1.42c0,4.67-1.05,8.9-3.16,12.69-2.11,3.79-5.04,6.77-8.8,8.92-3.76,2.15-8.05,3.23-12.86,3.23h-18.62v24.29h-24.94V57.99h43.56c4.81,0,9.1,1.08,12.86,3.23ZM441.95,91.37h10.27c2.63,0,4.61-.66,5.93-1.97,1.31-1.31,1.97-3.1,1.97-5.36v-.88c0-2.34-.66-4.14-1.97-5.42-1.32-1.28-3.29-1.92-5.93-1.92h-10.27v15.54Z"/>
    <path class="cls-1" d="M519.6,133.28l-27.54-75.29h26.63l15.57,50.34h.45l15.69-50.34h25.5l-27.42,75.29h-28.89Z"/>
    <path class="cls-1" d="M690.57,133.28v-27.14c0-3.35.13-6.8.4-10.34.26-3.54.54-6.51.85-8.92.3-2.41.49-3.94.56-4.59h-.45l-14.33,50.99h-19.52l-14.45-50.89h-.45c.07.66.28,2.17.62,4.54.34,2.37.66,5.33.96,8.87.3,3.54.45,6.99.45,10.34v27.14h-22.91V57.99h35.21l11.74,43.44h.45l11.63-43.44h33.97v75.29h-24.71Z"/>
    <path class="cls-1" d="M784.63,81.63c5.76,4.96,8.63,12.55,8.63,22.76v3.72h-44.69c0,4.16.96,7.29,2.88,9.41,1.92,2.12,4.95,3.17,9.08,3.17,3.76,0,6.53-.77,8.29-2.3s2.65-3.57,2.65-6.13h21.78c0,7-2.75,12.48-8.24,16.41-5.49,3.94-13.5,5.91-24.04,5.91-11.06,0-19.64-2.5-25.73-7.49-6.09-5-9.14-12.57-9.14-22.71s2.97-17.44,8.92-22.54c5.94-5.11,14.14-7.66,24.6-7.66s19.24,2.48,25,7.44ZM748.69,97.82h21.89c0-2.99-.89-5.36-2.65-7.11-1.77-1.75-4.23-2.63-7.39-2.63-7.07,0-11.02,3.25-11.85,9.74Z"/>
    <path class="cls-1" d="M847.43,133.28l-1.92-8.21c-4.36,6.35-10.68,9.52-18.96,9.52s-14.26-2.55-18.62-7.66c-4.36-5.11-6.55-12.66-6.55-22.65s2.18-17.42,6.55-22.49c4.36-5.07,10.57-7.61,18.62-7.61,6.84,0,12.41,2.23,16.7,6.68v-26.92h22.46v79.34h-18.28ZM823.85,101.54v5.8c0,7.44,3.23,11.16,9.7,11.16,3.31,0,5.79-1.13,7.45-3.39,1.65-2.26,2.48-5.22,2.48-8.86v-3.61c0-3.65-.83-6.62-2.48-8.92-1.66-2.3-4.14-3.45-7.45-3.45-6.47,0-9.7,3.76-9.7,11.27Z"/>
    <path class="cls-1" d="M880.16,68.71v-14.77h22.46v14.77h-22.46ZM880.16,133.28v-57.78h22.46v57.78h-22.46Z"/>
    <path class="cls-1" d="M975.64,62.53c6.39,3.9,9.67,9.68,9.82,17.34v1.31h-23.36v-.44c0-2.19-.83-4.01-2.48-5.47-1.66-1.46-4.18-2.19-7.56-2.19s-5.85.48-7.62,1.42c-1.77.95-2.65,2.12-2.65,3.5,0,1.97,1.2,3.43,3.61,4.38,2.41.95,6.28,1.93,11.62,2.95,6.24,1.24,11.38,2.54,15.4,3.88,4.02,1.35,7.54,3.56,10.55,6.62,3.01,3.06,4.55,7.22,4.63,12.48,0,8.9-3.1,15.5-9.31,19.81-6.21,4.31-14.5,6.46-24.89,6.46-12.11,0-21.54-1.97-28.27-5.91-6.73-3.94-10.1-10.91-10.1-20.9h23.59c0,3.79,1.02,6.33,3.05,7.61,2.03,1.28,5.19,1.91,9.48,1.91,3.16,0,5.77-.33,7.84-.98,2.07-.66,3.1-2.01,3.1-4.05,0-1.82-1.15-3.19-3.44-4.1-2.29-.91-6.04-1.88-11.23-2.9-6.32-1.31-11.55-2.68-15.69-4.1s-7.75-3.78-10.83-7.06c-3.09-3.28-4.63-7.73-4.63-13.35,0-8.24,3.29-14.32,9.88-18.22,6.58-3.9,14.91-5.85,25-5.85s18.09,1.95,24.49,5.85Z"/>
    <path class="cls-1" d="M1056.32,81.85c4.36,5.11,6.55,12.66,6.55,22.65s-2.18,17.42-6.55,22.49c-4.36,5.07-10.57,7.61-18.62,7.61-6.92,0-12.49-2.19-16.7-6.56v26.81h-22.46v-79.34h18.28l1.92,8.21c4.36-6.35,10.68-9.52,18.96-9.52s14.26,2.55,18.62,7.66ZM1023.26,93.66c-1.66,2.26-2.48,5.22-2.48,8.87v3.61c0,3.65.83,6.62,2.48,8.92,1.65,2.3,4.14,3.45,7.45,3.45,6.47,0,9.71-3.76,9.71-11.27v-5.8c0-7.44-3.24-11.16-9.71-11.16-3.31,0-5.79,1.13-7.45,3.39Z"/>
    <path class="cls-1" d="M1125.39,78.62c5.72,2.95,8.58,7.75,8.58,14.39v22.54c0,1.24.3,2.26.9,3.07.6.8,1.5,1.2,2.71,1.2h4.06v12.58c-.23.15-.81.38-1.75.71-.94.33-2.28.66-4,.99-1.73.33-3.73.49-5.98.49-4.36,0-7.96-.64-10.78-1.91s-4.76-3.05-5.81-5.31c-2.86,2.19-6.06,3.94-9.59,5.25-3.54,1.31-7.67,1.97-12.41,1.97-13.99,0-20.99-5.4-20.99-16.19,0-5.62,1.56-9.9,4.68-12.86,3.12-2.95,7.62-4.98,13.49-6.07,5.87-1.09,13.54-1.64,23.02-1.64v-2.85c0-2.26-.81-3.98-2.43-5.14-1.62-1.16-3.71-1.75-6.26-1.75-2.33,0-4.34.4-6.04,1.2-1.69.8-2.54,2.08-2.54,3.83v.44h-22.12c-.08-.36-.11-.88-.11-1.53,0-5.47,2.69-9.81,8.07-13.02,5.38-3.21,13.07-4.81,23.08-4.81,9.1,0,16.52,1.48,22.23,4.43ZM1097.35,110.13c-3.05,1.35-4.57,3.16-4.57,5.42,0,3.65,2.56,5.47,7.67,5.47,2.94,0,5.51-.77,7.73-2.3,2.22-1.53,3.33-3.43,3.33-5.69v-4.92c-6.4,0-11.12.68-14.16,2.02Z"/>
    <path class="cls-1" d="M1246.82,59.41c5.64,1.82,9.97,4.31,12.98,7.44,3.01,3.14,4.52,6.6,4.52,10.39v2.74h-19.98c0-2.26-1.37-4.14-4.12-5.64-2.75-1.49-6.71-2.24-11.91-2.24-4.82,0-8.48.89-11,2.68-2.52,1.79-3.78,3.96-3.78,6.51,0,2.26.77,3.98,2.31,5.14,1.54,1.17,3.44,1.75,5.7,1.75h11.74v13.46h-14.22c-2.33,0-4.23.68-5.7,2.02-1.47,1.35-2.2,3.3-2.2,5.85,0,2.99,1.3,5.34,3.89,7.06s6.71,2.57,12.36,2.57c11.29,0,16.93-3.25,16.93-9.74v-21.23h35.66v13.46h-15.46v7.33c0,8.17-2.99,14.48-8.97,18.93-5.98,4.45-15.33,6.67-28.04,6.67s-22.91-2.04-29.46-6.13c-6.55-4.09-9.82-9.48-9.82-16.2,0-4.38,1.19-8.15,3.56-11.33s5.7-5.42,9.99-6.73v-.44c-3.24-1.17-5.92-3.17-8.07-6.02-2.14-2.85-3.22-6.02-3.22-9.52,0-3.94,1.37-7.55,4.12-10.83,2.75-3.28,6.87-5.89,12.36-7.82,5.49-1.93,12.11-2.9,19.86-2.9s14.33.91,19.97,2.74Z"/>
    <path class="cls-1" d="M475.36,305.24l-10.05-45.85h-.45l-10.04,45.85h-27.42l-18.17-75.29h25.96l8.91,42.68h.45l8.8-42.68h24.6l9.37,42.68h.45l8.35-42.68h24.83l-18.17,75.29h-27.42Z"/>
    <path class="cls-1" d="M581.16,253.59c5.76,4.96,8.63,12.55,8.63,22.76v3.72h-44.69c0,4.16.96,7.29,2.88,9.41,1.92,2.12,4.95,3.17,9.08,3.17,3.76,0,6.53-.77,8.29-2.3s2.65-3.57,2.65-6.13h21.78c0,7-2.75,12.48-8.24,16.41-5.49,3.94-13.5,5.91-24.04,5.91-11.06,0-19.64-2.5-25.73-7.49-6.09-5-9.14-12.57-9.14-22.71s2.97-17.44,8.92-22.54c5.94-5.11,14.14-7.66,24.6-7.66s19.24,2.48,25,7.44ZM545.22,269.79h21.89c0-2.99-.89-5.36-2.65-7.11-1.77-1.75-4.23-2.63-7.39-2.63-7.07,0-11.02,3.25-11.85,9.74Z"/>
    <path class="cls-1" d="M601.42,240.68v-14.77h22.46v14.77h-22.46ZM601.42,305.24v-57.78h22.46v57.78h-22.46Z"/>
    <path class="cls-1" d="M701.8,246.91c-2.29,2.41-5.74,4.2-10.32,5.36,2.18,1.61,3.89,3.48,5.13,5.64,1.24,2.15,1.86,4.43,1.86,6.84,0,6.13-2.39,10.76-7.17,13.9-4.78,3.14-10.74,4.71-17.89,4.71h-8.58c-4.74,0-7.11,1.06-7.11,3.17,0,1.02.53,1.84,1.58,2.46,1.05.62,2.9.93,5.53.93h20.31c6.62,0,11.62,1.68,15.01,5.03,3.39,3.36,5.08,7.84,5.08,13.46,0,4.16-1.13,7.73-3.39,10.72-2.26,2.99-5.3,5.25-9.14,6.78s-8.01,2.3-12.53,2.3h-33.18c-2.71,0-5.21-.62-7.5-1.86-2.3-1.24-4.12-2.94-5.47-5.09-1.35-2.15-2.03-4.54-2.03-7.17,0-2.84.9-5.42,2.71-7.71s4.06-4.03,6.77-5.2c-1.81-1.24-3.24-2.74-4.29-4.49-1.05-1.75-1.58-3.65-1.58-5.69,0-2.84,1.09-5.42,3.27-7.71s4.89-3.85,8.13-4.65c-2.93-1.82-5.27-3.92-7-6.29-1.73-2.37-2.6-4.87-2.6-7.49,0-6.71,2.8-11.51,8.41-14.39,5.6-2.88,13.03-4.32,22.29-4.32,4.06,0,7.34.22,9.82.66,3.69-2.26,6.07-4.32,7.17-6.18,1.09-1.86,1.64-3.19,1.64-3.99h18.51c0,4.45-1.15,7.88-3.44,10.29ZM654.97,306.61c-1.09.91-1.64,2.21-1.64,3.88s.56,3.03,1.69,4.05c1.13,1.02,2.52,1.53,4.18,1.53h17.61c1.65,0,3.06-.49,4.23-1.48,1.16-.98,1.75-2.32,1.75-3.99s-.56-2.99-1.69-3.94c-1.13-.95-2.56-1.42-4.29-1.42h-17.61c-1.73,0-3.14.45-4.23,1.37ZM661.79,259.39c-1.58,1.24-2.37,3.03-2.37,5.36s.73,4.21,2.2,5.42,3.55,1.81,6.26,1.81,4.83-.6,6.38-1.81c1.54-1.2,2.31-3.01,2.31-5.42s-.77-4.21-2.31-5.42c-1.54-1.2-3.67-1.81-6.38-1.81-2.48,0-4.52.62-6.1,1.86Z"/>
    <path class="cls-1" d="M744.4,248.06c3.23-1.28,6.62-1.91,10.16-1.91,6.92,0,12.11,1.86,15.57,5.58,3.46,3.72,5.19,9.08,5.19,16.09v37.43h-22.46v-34.8c0-2.48-.66-4.47-1.98-5.96s-3.18-2.24-5.59-2.24c-2.78,0-5.04.88-6.77,2.63-1.73,1.75-2.6,3.9-2.6,6.46v33.92h-22.46v-79.34h22.46v27.58c2.41-2.33,5.23-4.14,8.46-5.42Z"/>
    <path class="cls-1" d="M828.48,247.46v14.77h-12.64v22c0,2.63.45,4.54,1.35,5.75s2.56,1.81,4.97,1.81h6.32v12.8c-1.81.58-4.14,1.06-7,1.42-2.86.36-5.34.55-7.45.55-6.62,0-11.72-1.17-15.29-3.5-3.58-2.34-5.36-6.31-5.36-11.93v-28.89h-8.35v-14.77h9.25l4.85-17.51h16.7v17.51h12.64Z"/>
    <path class="cls-1" d="M878.02,229.95h24.94v56.03h39.84v19.26h-64.78v-75.29Z"/>
    <path class="cls-1" d="M1007.18,253.86c5.98,5.14,8.97,12.64,8.97,22.49s-2.99,17.34-8.97,22.49c-5.98,5.14-14.2,7.71-24.66,7.71s-18.66-2.55-24.6-7.66c-5.94-5.11-8.92-12.62-8.92-22.54s2.97-17.44,8.92-22.54c5.94-5.11,14.14-7.66,24.6-7.66s18.68,2.57,24.66,7.71ZM971.46,273.29v6.24c0,8.17,3.68,12.26,11.06,12.26s11.17-4.08,11.17-12.26v-6.24c0-8.24-3.73-12.37-11.17-12.37s-11.06,4.12-11.06,12.37Z"/>
    <path class="cls-1" d="M1075.57,250.69c5.53,3.03,8.29,7.72,8.29,14.06h-20.88c0-2.11-.98-3.61-2.93-4.49-1.35-.73-3.05-1.09-5.08-1.09-5.42,0-8.13,1.24-8.13,3.72,0,1.39.94,2.37,2.82,2.95,1.88.58,4.97,1.2,9.25,1.86,5.27.73,9.67,1.59,13.21,2.57,3.53.99,6.62,2.74,9.25,5.25,2.63,2.52,3.95,6.04,3.95,10.56,0,7.37-2.84,12.62-8.52,15.76-5.68,3.14-13.11,4.71-22.29,4.71-5.27,0-10.23-.71-14.9-2.13-4.67-1.42-8.47-3.63-11.4-6.62-2.94-2.99-4.4-6.79-4.4-11.38h20.88v.44c.07,2.48,1.15,4.21,3.22,5.2,2.07.98,4.27,1.48,6.6,1.48,6.24,0,9.37-1.42,9.37-4.27,0-1.46-.98-2.52-2.94-3.17-1.96-.66-5.15-1.35-9.59-2.08-5.34-.88-9.73-1.82-13.15-2.84-3.42-1.02-6.42-2.75-8.97-5.2-2.56-2.44-3.84-5.85-3.84-10.23,0-7.08,2.77-12.11,8.3-15.1,5.53-2.99,12.73-4.49,21.61-4.49,7.97,0,14.73,1.51,20.26,4.54Z"/>
    <path class="cls-1" d="M1144.52,250.69c5.53,3.03,8.29,7.72,8.29,14.06h-20.88c0-2.11-.98-3.61-2.93-4.49-1.35-.73-3.05-1.09-5.08-1.09-5.42,0-8.13,1.24-8.13,3.72,0,1.39.94,2.37,2.82,2.95,1.88.58,4.97,1.2,9.25,1.86,5.27.73,9.67,1.59,13.21,2.57,3.53.99,6.62,2.74,9.25,5.25,2.63,2.52,3.95,6.04,3.95,10.56,0,7.37-2.84,12.62-8.52,15.76-5.68,3.14-13.11,4.71-22.29,4.71-5.27,0-10.23-.71-14.9-2.13-4.67-1.42-8.47-3.63-11.4-6.62-2.94-2.99-4.4-6.79-4.4-11.38h20.88v.44c.07,2.48,1.15,4.21,3.22,5.2,2.07.98,4.27,1.48,6.6,1.48,6.24,0,9.37-1.42,9.37-4.27,0-1.46-.98-2.52-2.94-3.17-1.96-.66-5.15-1.35-9.59-2.08-5.34-.88-9.73-1.82-13.15-2.84-3.42-1.02-6.42-2.75-8.97-5.2-2.56-2.44-3.84-5.85-3.84-10.23,0-7.08,2.77-12.11,8.3-15.1,5.53-2.99,12.73-4.49,21.61-4.49,7.97,0,14.73,1.51,20.26,4.54Z"/>
  </g>
</svg>