<?xml version="1.0" encoding="UTF-8"?>
<svg id="Layer_1" xmlns="http://www.w3.org/2000/svg" viewBox="0 0 1280 403.18">
  <defs>
    <style>
      .cls-1 {
        fill: #231f20;
      }
    </style>
  </defs>
  <path class="cls-1" d="M94.39,10.69c5.53,3.16,9.84,7.51,12.94,13.03,3.1,5.52,4.65,11.72,4.65,18.58v2.09c0,6.86-1.55,13.09-4.65,18.66-3.1,5.58-7.41,9.95-12.94,13.11-5.53,3.16-11.83,4.75-18.91,4.75h-27.37v35.71H11.44V5.95h64.04c7.08,0,13.38,1.58,18.91,4.75ZM48.11,55.01h15.09c3.87,0,6.77-.97,8.71-2.9,1.93-1.93,2.9-4.56,2.9-7.88v-1.29c0-3.43-.97-6.09-2.9-7.96-1.94-1.87-4.84-2.82-8.71-2.82h-15.09v22.84Z"/>
  <path class="cls-1" d="M162.24,116.62L121.76,5.95h39.15l22.89,74h.66L207.53,5.95h37.49l-40.31,110.67h-42.47Z"/>
  <path class="cls-1" d="M413.56,116.62v-39.89c0-4.93.19-10,.58-15.2.39-5.2.8-9.57,1.24-13.11.44-3.54.72-5.79.83-6.75h-.66l-21.07,74.96h-28.7l-21.23-74.8h-.66c.11.96.41,3.19.91,6.67.5,3.49.97,7.83,1.41,13.03.44,5.2.66,10.27.66,15.2v39.89h-33.68V5.95h51.76l17.25,63.86h.66l17.09-63.86h49.93v110.67h-36.33Z"/>
  <path class="cls-1" d="M551.83,40.7c8.46,7.29,12.69,18.45,12.69,33.46v5.47h-65.69c0,6.11,1.41,10.72,4.23,13.83,2.82,3.11,7.27,4.67,13.35,4.67,5.53,0,9.59-1.13,12.19-3.38s3.9-5.25,3.9-9.01h32.02c0,10.3-4.04,18.34-12.11,24.13-8.07,5.79-19.85,8.69-35.33,8.69-16.26,0-28.86-3.67-37.82-11.02-8.96-7.34-13.44-18.47-13.44-33.38s4.37-25.63,13.11-33.14c8.73-7.5,20.79-11.26,36.16-11.26s28.29,3.65,36.75,10.94ZM499,64.5h32.18c0-4.4-1.3-7.88-3.9-10.46-2.6-2.57-6.22-3.86-10.87-3.86-10.39,0-16.2,4.77-17.42,14.32Z"/>
  <path class="cls-1" d="M644.15,116.62l-2.82-12.06c-6.41,9.33-15.71,13.99-27.87,13.99s-20.96-3.75-27.37-11.26c-6.41-7.5-9.62-18.6-9.62-33.3s3.21-25.6,9.62-33.06c6.41-7.45,15.54-11.18,27.37-11.18,10.06,0,18.25,3.27,24.55,9.81V0h33.01v116.62h-26.88ZM609.48,69.97v8.53c0,10.94,4.75,16.41,14.26,16.41,4.87,0,8.52-1.66,10.95-4.98,2.43-3.32,3.65-7.67,3.65-13.03v-5.31c0-5.36-1.22-9.73-3.65-13.11-2.43-3.38-6.08-5.07-10.95-5.07-9.51,0-14.26,5.52-14.26,16.57Z"/>
  <path class="cls-1" d="M692.26,21.71V0h33.01v21.71h-33.01ZM692.26,116.62V31.69h33.01v84.93h-33.01Z"/>
  <path class="cls-1" d="M832.6,12.63c9.4,5.74,14.21,14.24,14.43,25.5v1.93h-34.34v-.64c0-3.22-1.22-5.9-3.65-8.04-2.43-2.15-6.14-3.22-11.12-3.22s-8.6.7-11.2,2.09c-2.6,1.4-3.9,3.11-3.9,5.15,0,2.9,1.77,5.04,5.31,6.43,3.54,1.4,9.23,2.84,17.09,4.34,9.18,1.82,16.73,3.73,22.64,5.71,5.92,1.99,11.09,5.23,15.51,9.73,4.42,4.5,6.69,10.62,6.8,18.34,0,13.08-4.56,22.79-13.68,29.11-9.13,6.33-21.32,9.49-36.58,9.49-17.81,0-31.66-2.89-41.56-8.69-9.9-5.79-14.85-16.03-14.85-30.72h34.67c0,5.58,1.49,9.3,4.48,11.18,2.98,1.88,7.63,2.81,13.93,2.81,4.65,0,8.49-.48,11.53-1.45,3.04-.96,4.56-2.95,4.56-5.95,0-2.68-1.69-4.69-5.06-6.03-3.37-1.34-8.87-2.76-16.5-4.26-9.29-1.93-16.98-3.94-23.06-6.03-6.08-2.09-11.39-5.55-15.92-10.37-4.54-4.83-6.8-11.37-6.8-19.63,0-12.12,4.84-21.04,14.52-26.78,9.68-5.74,21.92-8.61,36.74-8.61s26.6,2.87,36,8.61Z"/>
  <path class="cls-1" d="M951.21,41.02c6.41,7.51,9.62,18.61,9.62,33.3s-3.21,25.6-9.62,33.05c-6.41,7.46-15.54,11.18-27.37,11.18-10.18,0-18.36-3.22-24.55-9.65v39.41h-33.01V31.69h26.88l2.82,12.06c6.41-9.33,15.7-13.99,27.87-13.99s20.96,3.76,27.37,11.26ZM902.6,58.39c-2.43,3.33-3.65,7.67-3.65,13.03v5.31c0,5.36,1.22,9.73,3.65,13.11,2.43,3.38,6.08,5.06,10.95,5.06,9.51,0,14.27-5.52,14.27-16.57v-8.53c0-10.94-4.76-16.41-14.27-16.41-4.87,0-8.52,1.66-10.95,4.98Z"/>
  <path class="cls-1" d="M1052.73,36.27c8.4,4.34,12.61,11.4,12.61,21.15v33.14c0,1.83.44,3.33,1.33,4.51.88,1.18,2.21,1.77,3.98,1.77h5.97v18.5c-.33.22-1.19.56-2.57,1.04-1.38.49-3.34.97-5.89,1.45-2.55.48-5.48.72-8.79.72-6.41,0-11.7-.94-15.84-2.81-4.15-1.87-7-4.48-8.54-7.8-4.21,3.22-8.91,5.79-14.1,7.72-5.2,1.93-11.28,2.89-18.25,2.89-20.57,0-30.86-7.93-30.86-23.81,0-8.26,2.29-14.56,6.89-18.9,4.59-4.34,11.2-7.32,19.82-8.93,8.63-1.61,19.91-2.41,33.84-2.41v-4.18c0-3.32-1.19-5.84-3.57-7.56-2.38-1.71-5.45-2.57-9.21-2.57-3.43,0-6.39.59-8.87,1.77-2.49,1.18-3.74,3.06-3.74,5.63v.64h-32.51c-.11-.54-.17-1.29-.17-2.25,0-8.04,3.95-14.42,11.86-19.14,7.91-4.72,19.21-7.08,33.92-7.08,13.38,0,24.28,2.17,32.68,6.51ZM1011.51,82.6c-4.48,1.99-6.72,4.64-6.72,7.96,0,5.36,3.76,8.04,11.28,8.04,4.31,0,8.1-1.13,11.37-3.38,3.26-2.25,4.89-5.04,4.89-8.36v-7.24c-9.4,0-16.34.99-20.82,2.98Z"/>
  <path class="cls-1" d="M1231.23,8.04c8.29,2.68,14.65,6.33,19.08,10.94,4.42,4.61,6.64,9.71,6.64,15.28v4.02h-29.36c0-3.32-2.02-6.09-6.05-8.29-4.04-2.19-9.87-3.3-17.5-3.3-7.08,0-12.47,1.31-16.18,3.94-3.71,2.63-5.56,5.82-5.56,9.57,0,3.33,1.13,5.85,3.4,7.56,2.27,1.71,5.06,2.57,8.38,2.57h17.25v19.79h-20.9c-3.43,0-6.22.99-8.38,2.98-2.16,1.99-3.24,4.85-3.24,8.61,0,4.4,1.91,7.86,5.72,10.37,3.81,2.52,9.87,3.78,18.16,3.78,16.59,0,24.88-4.77,24.88-14.32v-31.2h52.42v19.79h-22.72v10.78c0,12.01-4.4,21.29-13.19,27.83-8.79,6.54-22.54,9.81-41.22,9.81s-33.68-3-43.3-9.01c-9.62-6.01-14.43-13.94-14.43-23.81,0-6.43,1.74-11.98,5.23-16.65,3.48-4.67,8.38-7.96,14.68-9.89v-.64c-4.76-1.71-8.71-4.67-11.86-8.85-3.15-4.18-4.73-8.85-4.73-13.99,0-5.79,2.02-11.1,6.05-15.92,4.04-4.83,10.09-8.66,18.16-11.5,8.07-2.84,17.81-4.26,29.2-4.26s21.07,1.34,29.36,4.02Z"/>
  <path class="cls-1" d="M97.21,369.4l-14.77-67.4h-.66l-14.76,67.4H26.71L0,258.73h38.16l13.1,62.73h.66l12.94-62.73h36.16l13.77,62.73h.66l12.28-62.73h36.5l-26.71,110.67h-40.31Z"/>
  <path class="cls-1" d="M252.74,293.47c8.46,7.29,12.69,18.45,12.69,33.46v5.47h-65.69c0,6.11,1.41,10.72,4.23,13.83,2.82,3.11,7.27,4.67,13.35,4.67,5.53,0,9.59-1.13,12.19-3.38,2.6-2.25,3.9-5.25,3.9-9.01h32.02c0,10.3-4.04,18.34-12.11,24.13-8.07,5.79-19.85,8.69-35.33,8.69-16.26,0-28.86-3.67-37.82-11.02-8.96-7.34-13.44-18.47-13.44-33.38s4.37-25.63,13.11-33.14c8.73-7.5,20.79-11.26,36.16-11.26s28.29,3.65,36.75,10.94ZM199.9,317.28h32.18c0-4.4-1.3-7.88-3.9-10.46-2.6-2.57-6.22-3.86-10.87-3.86-10.39,0-16.2,4.77-17.42,14.32Z"/>
  <path class="cls-1" d="M282.51,274.49v-21.71h33.01v21.71h-33.01ZM282.51,369.4v-84.93h33.01v84.93h-33.01Z"/>
  <path class="cls-1" d="M430.07,283.66c-3.37,3.54-8.43,6.17-15.18,7.88,3.2,2.36,5.72,5.12,7.55,8.28,1.82,3.16,2.74,6.51,2.74,10.05,0,9.01-3.51,15.82-10.53,20.43-7.02,4.61-15.79,6.92-26.29,6.92h-12.61c-6.97,0-10.45,1.56-10.45,4.67,0,1.5.77,2.71,2.32,3.62,1.55.91,4.26,1.37,8.13,1.37h29.86c9.73,0,17.09,2.47,22.06,7.4,4.98,4.93,7.47,11.53,7.47,19.79,0,6.11-1.66,11.37-4.98,15.76-3.32,4.39-7.8,7.72-13.44,9.97s-11.78,3.38-18.41,3.38h-48.77c-3.98,0-7.66-.91-11.03-2.74-3.38-1.82-6.05-4.32-8.05-7.48-1.99-3.16-2.98-6.68-2.98-10.54,0-4.18,1.33-7.96,3.98-11.34,2.65-3.38,5.97-5.92,9.95-7.64-2.65-1.82-4.76-4.02-6.3-6.59-1.55-2.57-2.32-5.36-2.32-8.37,0-4.18,1.6-7.96,4.81-11.34s7.19-5.66,11.94-6.84c-4.31-2.68-7.74-5.76-10.28-9.25-2.55-3.48-3.82-7.16-3.82-11.02,0-9.87,4.12-16.91,12.36-21.15,8.24-4.24,19.16-6.35,32.76-6.35,5.97,0,10.78.32,14.43.96,5.42-3.32,8.93-6.35,10.53-9.09,1.6-2.73,2.41-4.69,2.41-5.87h27.21c0,6.54-1.69,11.58-5.06,15.12ZM361.23,371.41c-1.6,1.34-2.41,3.24-2.41,5.71s.83,4.45,2.49,5.95c1.66,1.5,3.7,2.25,6.14,2.25h25.88c2.43,0,4.5-.72,6.22-2.17,1.71-1.45,2.57-3.41,2.57-5.87s-.83-4.4-2.49-5.79c-1.66-1.4-3.76-2.09-6.3-2.09h-25.88c-2.55,0-4.62.67-6.22,2.01ZM371.26,302c-2.32,1.83-3.48,4.45-3.48,7.88s1.08,6.19,3.24,7.96c2.16,1.77,5.22,2.65,9.21,2.65s7.1-.88,9.37-2.65c2.26-1.77,3.4-4.42,3.4-7.96s-1.14-6.19-3.4-7.96c-2.27-1.77-5.39-2.65-9.37-2.65-3.65,0-6.64.91-8.96,2.73Z"/>
  <path class="cls-1" d="M492.7,285.35c4.75-1.87,9.73-2.81,14.93-2.81,10.17,0,17.81,2.73,22.89,8.2,5.08,5.47,7.63,13.35,7.63,23.65v55.01h-33.01v-51.15c0-3.64-.97-6.57-2.9-8.77-1.93-2.2-4.67-3.3-8.21-3.3-4.09,0-7.41,1.29-9.95,3.86-2.55,2.57-3.81,5.74-3.81,9.49v49.87h-33.01v-116.62h33.01v40.54c3.54-3.43,7.68-6.09,12.44-7.96Z"/>
  <path class="cls-1" d="M616.28,284.46v21.72h-18.58v32.33c0,3.86.66,6.68,1.99,8.45s3.76,2.65,7.3,2.65h9.29v18.82c-2.65.86-6.08,1.55-10.29,2.09-4.2.53-7.85.8-10.95.8-9.73,0-17.23-1.71-22.48-5.14-5.26-3.43-7.88-9.28-7.88-17.53v-42.47h-12.28v-21.72h13.6l7.13-25.74h24.55v25.74h18.58Z"/>
  <path class="cls-1" d="M689.11,258.73h36.66v82.36h58.56v28.31h-95.22v-110.67Z"/>
  <path class="cls-1" d="M878.97,293.87c8.79,7.56,13.19,18.58,13.19,33.06s-4.39,25.5-13.19,33.06c-8.79,7.56-20.88,11.34-36.25,11.34s-27.43-3.75-36.16-11.26c-8.74-7.5-13.11-18.55-13.11-33.14s4.37-25.63,13.11-33.14c8.73-7.5,20.79-11.26,36.16-11.26s27.46,3.78,36.25,11.34ZM826.46,322.43v9.17c0,12.01,5.42,18.02,16.26,18.02s16.42-6,16.42-18.02v-9.17c0-12.12-5.48-18.18-16.42-18.18s-16.26,6.06-16.26,18.18Z"/>
  <path class="cls-1" d="M979.5,289.21c8.13,4.45,12.19,11.34,12.19,20.67h-30.69c0-3.11-1.44-5.31-4.31-6.59-1.99-1.07-4.48-1.61-7.46-1.61-7.96,0-11.94,1.83-11.94,5.47,0,2.04,1.38,3.49,4.15,4.34,2.76.86,7.3,1.77,13.6,2.74,7.74,1.07,14.21,2.33,19.41,3.78,5.2,1.45,9.73,4.02,13.6,7.72,3.87,3.7,5.81,8.88,5.81,15.52,0,10.83-4.18,18.56-12.53,23.16-8.35,4.61-19.27,6.92-32.76,6.92-7.74,0-15.04-1.04-21.9-3.14-6.86-2.09-12.44-5.33-16.76-9.73-4.31-4.4-6.47-9.98-6.47-16.73h30.69v.64c.11,3.65,1.68,6.19,4.73,7.64,3.04,1.45,6.27,2.17,9.7,2.17,9.18,0,13.77-2.09,13.77-6.27,0-2.14-1.44-3.7-4.31-4.67-2.88-.96-7.58-1.98-14.1-3.06-7.85-1.29-14.3-2.68-19.33-4.18-5.03-1.5-9.43-4.05-13.19-7.64-3.76-3.59-5.64-8.61-5.64-15.04,0-10.4,4.07-17.8,12.2-22.2,8.13-4.39,18.72-6.59,31.77-6.59,11.72,0,21.65,2.23,29.78,6.67Z"/>
  <path class="cls-1" d="M1080.86,289.21c8.13,4.45,12.19,11.34,12.19,20.67h-30.69c0-3.11-1.44-5.31-4.31-6.59-1.99-1.07-4.48-1.61-7.46-1.61-7.96,0-11.94,1.83-11.94,5.47,0,2.04,1.38,3.49,4.15,4.34,2.76.86,7.3,1.77,13.6,2.74,7.74,1.07,14.21,2.33,19.41,3.78,5.2,1.45,9.73,4.02,13.6,7.72,3.87,3.7,5.81,8.88,5.81,15.52,0,10.83-4.18,18.56-12.53,23.16-8.35,4.61-19.27,6.92-32.76,6.92-7.74,0-15.04-1.04-21.9-3.14-6.86-2.09-12.44-5.33-16.76-9.73-4.31-4.4-6.47-9.98-6.47-16.73h30.69v.64c.11,3.65,1.68,6.19,4.73,7.64,3.04,1.45,6.27,2.17,9.7,2.17,9.18,0,13.77-2.09,13.77-6.27,0-2.14-1.44-3.7-4.31-4.67-2.88-.96-7.58-1.98-14.1-3.06-7.85-1.29-14.3-2.68-19.33-4.18-5.03-1.5-9.43-4.05-13.19-7.64-3.76-3.59-5.64-8.61-5.64-15.04,0-10.4,4.07-17.8,12.2-22.2,8.13-4.39,18.72-6.59,31.77-6.59,11.72,0,21.65,2.23,29.78,6.67Z"/>
</svg>