<?xml version="1.0" encoding="UTF-8"?>
<svg id="Layer_1" xmlns="http://www.w3.org/2000/svg" viewBox="0 0 1280 1550.71">
  <defs>
    <style>
      .cls-1 {
        fill: #6cc3e0;
      }
    </style>
  </defs>
  <path class="cls-1" d="M876.48,370.47c-326.09-87.94-143.69-210.73-229.73-343.7,0,0,242.63,70.1,246.5,304.19,0,0-81.31-129.15-69.26-99.84,12.48,29.31,52.48,139.35,52.48,139.35h0ZM589.53,105.79c-197.89,670.84,786.4,972.48,6.02,1444.91,985.15-302.07-117.44-860.75-6.02-1444.91h0ZM456.6,0c-109.7,123.63-116.15,142.32-184.55,302.07-22.37-22.52-45.17-52.26-63.24-92.62,0,0,11.19,64.15,55.93,109.61-120.02,260.86-306.3,92.19-159.6,268.51-15.49,86.24-94.64,98.14-17.64,133.83-112.28,40.36-18.07,70.1-23.23,98.14-6.02,32.71-56.36,46.31-64.1,118.96-7.74,72.22,260.27,105.79,345.88,151.25,162.61,86.67,202.19,272.33,136.8,445.24-32.26,84.55,506.34-189.91,20.22-876.04C313.35,403.19,458.75-1.27,456.6,0h0ZM934.55,395.11c250.8,230.69,33.56,254.49,50.33,412.95,0,0-184.12-175.89-83.03-385.76,0,0,14.63,152.95,16.78,121.08,2.15-31.86,15.92-148.27,15.92-148.27h0ZM995.64,403.19c209.94-119.81,175.95,35.26,284.36,59.9,0,0-158.31,86.67-274.04-31.01,0,0,104.11,25.07,83.89,16.14-20.22-8.92-94.21-45.03-94.21-45.03h0ZM933.69,366.22c333.4-52.26,164.77-194.16,264.14-316.94,0,0-248.65,43.33-276.62,275.73,0,0,94.21-119.38,79.16-91.77-15.49,28.04-66.68,132.98-66.68,132.98h0ZM909.6,231.55c-104.11-114.71-5.16-116.41-6.45-188.63,0,0,76.14,87.09,21.94,178.01,0,0-.43-69.68-2.58-55.66-2.15,14.45-12.91,66.28-12.91,66.28h0Z"/>
</svg>