<?xml version="1.0" encoding="UTF-8"?>
<svg id="Layer_1" xmlns="http://www.w3.org/2000/svg" viewBox="0 0 19.7 19.7">
  <defs>
    <style>
      .cls-1 {
        fill: #6cc4e1;
      }
    </style>
  </defs>
  <path class="cls-1" d="M11.17,6.8c-2.34-.63-1.03-1.51-1.65-2.47,0,0,1.74.5,1.77,2.18,0,0-.58-.93-.5-.72.09.21.38,1,.38,1h0ZM9.11,4.91c-1.42,4.81,5.64,6.98.04,10.36,7.07-2.17-.84-6.17-.04-10.36h0ZM8.16,4.15c-.79.89-.83,1.02-1.32,2.17-.16-.16-.32-.37-.45-.66,0,0,.08.46.4.79-.86,1.87-2.2.66-1.14,1.93-.11.62-.68.7-.13.96-.81.29-.13.5-.17.7-.04.23-.4.33-.46.85-.06.52,1.87.76,2.48,1.08,1.17.62,1.45,1.95.98,3.19-.23.61,3.63-1.36.15-6.28-1.36-1.83-.32-4.74-.33-4.73h0ZM11.58,6.98c1.8,1.65.24,1.83.36,2.96,0,0-1.32-1.26-.6-2.77,0,0,.1,1.1.12.87s.11-1.06.11-1.06h0ZM12.02,7.04c1.51-.86,1.26.25,2.04.43,0,0-1.14.62-1.97-.22,0,0,.75.18.6.12-.15-.06-.68-.32-.68-.32h0ZM11.58,6.77c2.39-.37,1.18-1.39,1.89-2.27,0,0-1.78.31-1.98,1.98,0,0,.68-.86.57-.66-.11.2-.48.95-.48.95h0ZM11.4,5.81c-.75-.82-.04-.83-.05-1.35,0,0,.55.62.16,1.28,0,0,0-.5-.02-.4-.02.1-.09.48-.09.48h0Z"/>
  <g>
    <path class="cls-1" d="M2.09,2.36c.1,0,.18,0,.26.05.08.04.14.1.19.18,0,0,0,.02.01.02.05.08.07.16.07.25,0,.09-.03.17-.07.25-.05.08-.11.14-.2.2-.11.07-.22.14-.33.22.09.13.18.27.27.4-.14.1-.29.2-.43.3-.29-.4-.58-.8-.88-1.21.27-.2.55-.39.83-.56.09-.06.19-.09.28-.1ZM1.82,3.24c.06-.04.12-.08.19-.12.05-.03.08-.07.09-.1,0-.04,0-.08-.02-.11,0,0,0,0,0-.01-.02-.04-.06-.06-.1-.07-.04,0-.08,0-.13.04-.06.04-.13.08-.19.13.06.09.11.17.17.26Z"/>
    <path class="cls-1" d="M3.66,3.11c-.4-.36-.81-.7-1.23-1.03.18-.1.35-.2.53-.29.26.24.51.49.75.74,0,0,0,0,0,0-.05-.35-.09-.7-.12-1.05.17-.08.35-.16.53-.23,0,.54.02,1.07.06,1.6-.18.08-.35.17-.53.26Z"/>
    <path class="cls-1" d="M6.9,1.93c-.04-.17-.08-.35-.12-.52-.01-.06-.03-.13-.04-.2-.01-.07-.01-.13-.02-.18,0-.05,0-.08,0-.09,0,0,0,0-.01,0-.02.35-.04.7-.05,1.05-.13.03-.25.07-.38.1-.18-.3-.38-.59-.57-.88,0,0,0,0,0,0,0,.01.02.04.04.08.02.04.04.1.07.16.02.07.05.13.07.19.05.17.1.34.16.51-.15.04-.29.09-.44.14-.16-.47-.32-.94-.48-1.41.25-.08.5-.16.75-.23.16.25.32.51.47.76,0,0,0,0,0,0,0-.3.02-.6.03-.9.24-.06.49-.11.74-.16.09.49.19.98.28,1.46-.16.03-.32.07-.48.1Z"/>
    <path class="cls-1" d="M8.66.61c.13.09.2.23.22.43,0,.02,0,.05,0,.07-.31.02-.61.06-.92.1.01.08.04.14.08.18.04.04.11.05.19.04.07-.01.13-.03.16-.07.04-.03.05-.08.04-.13.15-.02.3-.03.45-.04.01.14-.03.25-.14.34-.1.09-.26.14-.47.17-.22.03-.39,0-.53-.07-.13-.08-.22-.22-.26-.41-.04-.19,0-.35.11-.47.11-.12.28-.2.5-.23.24-.03.42,0,.55.09ZM7.94,1.02c.15-.02.3-.04.46-.06,0-.06-.03-.1-.07-.13-.04-.03-.09-.04-.16-.03-.15.02-.23.09-.22.23Z"/>
    <path class="cls-1" d="M10,1.57c-.01-.05-.03-.11-.04-.16-.09.13-.21.19-.38.2-.16,0-.29-.04-.38-.13-.09-.1-.15-.24-.16-.44-.01-.2.02-.35.11-.45.09-.11.22-.16.39-.17.15,0,.27.04.36.12,0-.18,0-.36,0-.53.17,0,.33,0,.5,0-.01.52-.03,1.05-.04,1.57-.12,0-.24,0-.36,0ZM9.51.95s0,.08,0,.11c0,.15.07.22.2.22.07,0,.12-.03.15-.07.03-.05.05-.1.05-.18,0-.02,0-.05,0-.07,0-.07-.02-.13-.05-.18-.04-.05-.09-.07-.16-.07-.14,0-.2.08-.2.23Z"/>
    <path class="cls-1" d="M10.71.31c0-.1,0-.2.01-.29.17,0,.33.02.5.03,0,.1-.01.19-.02.29-.16-.01-.33-.02-.49-.03ZM10.66,1.59c.02-.38.03-.76.05-1.14.16,0,.32.02.48.03-.03.38-.06.76-.09,1.14-.15-.01-.3-.02-.45-.03Z"/>
    <path class="cls-1" d="M12.8.42c.12.1.17.23.15.38,0,0,0,.02,0,.03-.16-.03-.33-.06-.49-.09,0,0,0,0,0,0,0-.04,0-.08-.04-.12-.03-.04-.08-.06-.15-.07-.07-.01-.13,0-.17,0-.04.01-.06.03-.07.06,0,.04.02.07.07.1.05.03.13.06.24.09.13.05.23.09.31.13.08.04.14.1.2.17.05.07.07.16.05.26-.03.17-.12.29-.26.35-.14.06-.31.07-.51.04-.24-.04-.42-.1-.55-.19-.12-.09-.18-.24-.16-.43.16.02.32.03.49.05,0,.07,0,.13.04.16.03.03.1.05.19.06.07,0,.12.01.16,0,.04,0,.07-.03.08-.07,0-.04-.01-.07-.06-.09-.04-.02-.12-.06-.22-.09-.13-.04-.23-.09-.31-.12-.08-.04-.15-.09-.21-.16-.06-.07-.08-.16-.07-.27.02-.16.1-.28.25-.34.16-.06.34-.08.56-.04.22.03.39.1.52.2Z"/>
    <path class="cls-1" d="M14.42,1.21c.06.12.06.28,0,.47-.06.19-.15.32-.26.38-.12.07-.25.08-.4.04-.13-.04-.23-.11-.29-.21-.04.17-.09.34-.13.52-.14-.04-.28-.07-.43-.1.11-.51.22-1.02.34-1.54.13.03.26.06.39.09,0,.06,0,.11,0,.17.12-.1.27-.13.45-.08.17.05.28.14.35.26ZM13.68,1.25s-.07.09-.09.16c0,.02-.01.05-.02.07-.01.07-.01.13,0,.18.02.05.07.09.13.1.13.03.21-.02.25-.16.01-.04.02-.07.03-.11.04-.14,0-.23-.14-.27-.07-.02-.13-.01-.17.03Z"/>
    <path class="cls-1" d="M15.85,1.67c.09.1.11.21.06.34-.06.14-.12.27-.18.41-.01.02-.02.04,0,.06,0,.02.02.04.04.04.03.01.05.02.08.03-.03.08-.07.15-.1.23,0,0-.02,0-.04,0-.02,0-.05,0-.08-.02-.03,0-.07-.02-.11-.04-.08-.04-.14-.08-.19-.12-.04-.05-.07-.09-.07-.14-.07.02-.15.03-.22.03-.08,0-.16-.02-.25-.05-.27-.1-.36-.24-.3-.44.04-.11.09-.18.17-.21.08-.04.18-.04.31-.02.12.02.28.07.47.14,0-.02.01-.04.02-.05.02-.04.01-.08-.01-.11-.03-.03-.06-.06-.11-.08-.05-.02-.09-.03-.13-.02-.04,0-.07.02-.08.05,0,0,0,0,0,0-.15-.05-.3-.11-.44-.16,0,0,0-.02,0-.03.03-.1.12-.16.25-.19.13-.02.3,0,.51.08.19.07.33.16.42.26ZM15.07,2.03c-.07,0-.11.02-.13.07-.02.07.01.12.11.16.06.02.11.03.17.02.05-.01.09-.04.1-.08.01-.03.02-.06.04-.09-.12-.05-.22-.07-.29-.07Z"/>
    <path class="cls-1" d="M18.43,2.61c.09.1.14.2.17.29.02.09.01.17-.03.23,0,.01-.02.03-.03.04-.12-.08-.25-.17-.37-.25.03-.04.02-.08-.02-.14-.03-.06-.1-.12-.2-.18-.08-.06-.17-.08-.24-.08-.06,0-.11.02-.14.07-.02.04-.02.08,0,.11.02.04.05.07.09.09.07.04.15.09.22.14-.05.08-.09.15-.14.23-.09-.05-.17-.11-.26-.16-.04-.03-.08-.03-.13-.03-.04,0-.07.03-.1.08-.03.05-.03.11,0,.16.03.06.09.11.2.18.2.12.34.14.41.03.08-.12.15-.24.23-.35.22.14.44.29.65.45-.05.07-.1.14-.16.22-.09-.07-.18-.13-.28-.2-.03.04-.06.08-.08.12-.09.13-.21.2-.37.2-.15,0-.34-.07-.56-.2-.23-.14-.38-.28-.46-.41-.08-.14-.09-.26-.03-.38.04-.08.1-.13.17-.16.08-.03.16-.04.25-.01,0,0,0,0,0,0-.05-.05-.08-.12-.1-.19-.01-.07,0-.14.03-.2.04-.07.1-.12.18-.15.08-.03.19-.03.32,0,.12.03.27.09.42.18.15.09.27.19.36.29Z"/>
  </g>
  <g>
    <path class="cls-1" d="M2.51,17.66c.08-.3.17-.6.25-.9,0,0,0,0,0,0-.22.22-.44.44-.66.66-.19-.11-.37-.23-.55-.35.16-.49.33-.98.52-1.46.15.11.3.21.45.32-.1.27-.2.54-.3.82,0,0,0,0,0,0,.21-.2.41-.41.61-.61.15.09.29.18.45.26-.08.28-.16.56-.23.84,0,0,0,0,0,0,.19-.22.37-.44.55-.66.15.08.31.16.46.23-.32.4-.66.79-1.01,1.17-.19-.1-.38-.2-.57-.3Z"/>
    <path class="cls-1" d="M5.09,17.71c.08.13.1.3.03.49,0,.02-.02.05-.02.07-.31-.1-.63-.22-.93-.35-.03.08-.04.14-.01.2.03.06.08.1.17.14.08.03.14.04.19.03.05-.01.08-.05.1-.09.15.06.31.11.46.16-.04.13-.14.22-.28.25-.15.03-.33,0-.56-.08-.24-.09-.41-.22-.49-.37-.09-.15-.09-.31,0-.5.08-.18.2-.29.36-.33.16-.04.33-.02.54.06.22.09.37.19.45.32ZM4.25,17.73c.15.06.3.12.45.18.02-.06.02-.11,0-.15-.02-.05-.07-.08-.13-.11-.14-.06-.25-.03-.31.08Z"/>
    <path class="cls-1" d="M5.58,17.6c.03-.09.06-.19.09-.28.15.05.29.09.44.13-.03.09-.05.19-.08.28-.15-.04-.3-.08-.45-.13ZM5.2,18.82c.11-.36.23-.73.34-1.09.15.05.3.09.45.13-.1.37-.2.74-.3,1.11-.17-.04-.33-.09-.5-.14Z"/>
    <path class="cls-1" d="M7.6,18.17c-.05.04-.13.07-.23.07.04.04.07.08.09.13.02.05.02.09.02.14-.02.12-.08.2-.19.25-.11.04-.25.05-.4.03-.06-.01-.13-.02-.19-.04-.11-.02-.16-.01-.17.03,0,.02,0,.04.02.06.02.02.06.03.12.04.15.03.3.06.45.08.14.02.25.07.32.15.06.08.1.17.08.28-.01.08-.05.15-.11.2-.06.05-.14.09-.23.1-.1.02-.19.02-.3,0-.26-.04-.52-.1-.77-.15-.06-.02-.12-.04-.16-.08-.05-.04-.08-.08-.1-.13-.02-.05-.03-.1-.01-.15.01-.06.05-.1.1-.13.05-.03.11-.05.18-.06-.03-.03-.06-.07-.07-.11-.02-.04-.02-.08,0-.12.01-.05.05-.1.11-.13.06-.03.12-.05.2-.05-.05-.05-.09-.1-.12-.16-.03-.05-.03-.11-.02-.16.03-.13.12-.21.24-.24.13-.03.29-.02.48.01.08.02.15.03.2.05.08-.03.15-.06.17-.1.03-.03.05-.06.05-.07.12.02.25.04.38.05-.01.09-.04.15-.1.19ZM6.39,19.16s-.05.03-.05.07c0,.03,0,.06.02.09.02.03.05.04.09.05.13.03.27.05.4.08.04,0,.07,0,.1-.01.03-.01.05-.04.05-.07,0-.03,0-.06-.03-.08-.02-.02-.06-.04-.09-.04-.13-.02-.26-.05-.4-.08-.04,0-.07,0-.1,0ZM6.73,18.27s-.06.05-.07.09c0,.05,0,.09.02.11.03.03.07.05.13.06.05.01.11,0,.14,0,.04-.02.06-.05.07-.1,0-.05,0-.08-.03-.11-.03-.03-.07-.05-.13-.06-.05-.01-.1,0-.14.01Z"/>
    <path class="cls-1" d="M8.49,18.28c.07-.02.14-.03.21-.03.14,0,.25.04.32.12.07.08.11.18.11.32,0,.25,0,.49,0,.74-.17,0-.34,0-.51-.02.01-.23.02-.46.03-.69,0-.05-.01-.09-.04-.12-.02-.03-.07-.05-.12-.05-.06,0-.11,0-.15.04-.04.03-.06.07-.07.12-.02.22-.03.45-.05.67-.17-.01-.34-.03-.51-.05.06-.52.12-1.04.18-1.56.15.02.3.03.45.04-.01.18-.03.36-.04.54.05-.04.12-.07.18-.09Z"/>
    <path class="cls-1" d="M10.25,18.25c0,.1.02.19.02.29-.09,0-.18.01-.27.02,0,.15.02.29.02.44,0,.05.01.09.04.11.02.02.06.03.11.03.05,0,.09,0,.14-.01,0,.08.01.17.02.25-.04.01-.09.03-.16.04-.07.01-.12.02-.17.02-.15,0-.27-.01-.35-.06-.08-.04-.13-.12-.13-.23,0-.19,0-.38-.01-.57-.06,0-.12,0-.18,0,0-.1,0-.2,0-.29.06,0,.13,0,.19,0,.03-.12.06-.23.09-.35.11,0,.23,0,.34-.01,0,.12.01.23.02.35.09,0,.18-.01.26-.02Z"/>
    <path class="cls-1" d="M11.22,17.79c.17-.03.33-.06.5-.09.07.36.15.72.22,1.09.29-.06.58-.13.86-.21.03.12.07.25.1.37-.48.13-.96.24-1.45.32-.08-.49-.16-.98-.24-1.47Z"/>
    <path class="cls-1" d="M13.95,17.53c.16.05.27.16.35.34.08.18.07.34-.02.49-.09.15-.25.26-.48.34-.23.08-.42.09-.58.03-.16-.06-.26-.18-.32-.37-.06-.19-.03-.35.06-.48.09-.13.24-.23.45-.31.21-.07.39-.09.55-.04ZM13.35,18.15s.03.08.04.12c.05.15.16.21.31.15.16-.06.21-.16.15-.31-.01-.04-.03-.08-.04-.12-.06-.15-.16-.2-.31-.15-.15.05-.2.15-.15.31Z"/>
    <path class="cls-1" d="M15.26,16.85c.13,0,.23.05.29.16-.14.07-.27.15-.41.22-.02-.04-.05-.05-.1-.05-.03,0-.07,0-.11.03-.11.05-.15.1-.13.14.02.02.04.03.08.03.04,0,.11-.03.2-.06.11-.04.2-.07.28-.09.08-.02.16-.02.23,0,.08.01.14.06.18.14.07.13.07.25-.02.37-.08.12-.23.23-.42.32-.11.06-.23.09-.33.11-.11.02-.21.02-.29-.01-.08-.03-.15-.08-.18-.17.15-.06.29-.13.43-.19,0,0,0,0,0,0,.02.04.06.07.11.06.05,0,.11-.01.15-.04.13-.06.18-.12.15-.17-.01-.03-.04-.03-.09-.03-.04,0-.12.03-.21.06-.12.04-.21.06-.29.08-.08.01-.16,0-.23-.01-.07-.02-.12-.07-.16-.15-.06-.13-.04-.24.04-.35.08-.1.21-.19.38-.28.16-.08.29-.12.43-.12Z"/>
    <path class="cls-1" d="M16.54,16.06c.13-.02.24.02.31.12-.13.09-.26.18-.39.27-.02-.03-.06-.05-.1-.04-.03,0-.07.02-.11.04-.1.07-.14.12-.11.16.02.02.04.03.08.02.04-.01.11-.04.19-.08.11-.05.2-.1.28-.12.08-.03.16-.04.23-.04.08,0,.14.04.2.12.08.12.09.24.02.37-.08.13-.21.26-.39.37-.11.07-.21.12-.32.15-.11.04-.21.04-.3.02-.09-.02-.16-.06-.2-.14.14-.08.28-.16.41-.25,0,0,0,0,0,0,.03.04.07.06.12.05.05,0,.1-.03.15-.06.12-.08.16-.14.14-.19-.02-.03-.05-.03-.09-.01-.04.01-.12.04-.21.09-.11.05-.21.09-.29.11-.08.02-.15.03-.23.02-.08-.01-.13-.06-.18-.13-.07-.12-.07-.24,0-.35.07-.11.19-.22.35-.32.14-.1.29-.15.42-.17Z"/>
  </g>
</svg>