<?xml version="1.0" encoding="UTF-8"?>
<svg id="Layer_1" xmlns="http://www.w3.org/2000/svg" viewBox="0 0 1419.86 1576.32">
  <defs>
    <style>
      .cls-1 {
        fill: #fff;
      }
    </style>
  </defs>
  <path class="cls-1" d="M815.27,544.28c-187.11-50.46-82.45-120.91-131.82-197.22,0,0,139.22,40.22,141.44,174.54,0,0-46.65-74.11-39.74-57.29,7.16,16.82,30.12,79.96,30.12,79.96h0ZM650.63,392.4c-113.55,384.93,451.23,558.01,3.46,829.09,565.28-173.33-67.39-493.89-3.46-829.09h0ZM574.35,331.7c-62.95,70.94-66.65,81.67-105.9,173.33-12.84-12.92-25.92-29.98-36.29-53.14,0,0,6.42,36.81,32.09,62.89-68.87,149.68-175.75,52.9-91.58,154.07-8.89,49.49-54.31,56.31-10.12,76.79-64.43,23.16-10.37,40.22-13.33,56.31-3.46,18.77-32.34,26.57-36.78,68.26-4.44,41.44,149.34,60.7,198.46,86.78,93.31,49.73,116.02,156.26,78.5,255.48-18.51,48.51,290.54-108.97,11.6-502.67-108.86-146.75-25.43-378.83-26.66-378.1h0ZM848.6,558.42c143.91,132.37,19.25,146.02,28.88,236.95,0,0-105.65-100.92-47.64-221.35,0,0,8.39,87.76,9.63,69.48,1.23-18.28,9.13-85.08,9.13-85.08h0ZM883.65,563.05c120.46-68.75,100.96,20.23,163.17,34.37,0,0-90.84,49.73-157.24-17.8,0,0,59.74,14.38,48.13,9.26-11.6-5.12-54.06-25.84-54.06-25.84h0ZM848.1,541.84c191.31-29.98,94.54-111.41,151.56-181.86,0,0-142.68,24.87-158.72,158.21,0,0,54.06-68.5,45.42-52.66-8.89,16.09-38.26,76.3-38.26,76.3h0ZM834.28,464.56c-59.74-65.82-2.96-66.8-3.7-108.24,0,0,43.69,49.97,12.59,102.14,0,0-.25-39.98-1.48-31.93-1.23,8.29-7.41,38.03-7.41,38.03h0Z"/>
  <g>
    <path class="cls-1" d="M89.21,188.53c7.63-.63,14.6.69,20.88,3.9,6.28,3.22,11.25,8.06,14.97,14.46.38.65.75,1.3,1.13,1.95,3.72,6.4,5.48,13.13,5.37,20.16-.11,7.04-2.06,13.67-5.82,19.93-3.77,6.27-9.11,11.56-16.09,15.97-9,5.69-17.94,11.51-26.82,17.47,7.15,10.66,14.3,21.32,21.45,31.97-11.49,7.71-22.87,15.66-34.14,23.85C46.75,306.01,23.38,273.83,0,241.66c21.79-15.83,43.97-30.87,66.5-45.1,7.47-4.72,15.07-7.39,22.7-8.02ZM67.27,259.18c5.01-3.37,10.05-6.69,15.1-9.97,3.89-2.52,6.25-5.27,7.09-8.27.84-3,.31-6.02-1.6-9.05-.25-.39-.49-.78-.74-1.17-1.98-3.13-4.5-4.92-7.57-5.36-3.07-.44-6.61.62-10.58,3.19-5.16,3.35-10.3,6.74-15.42,10.18,4.57,6.82,9.15,13.63,13.72,20.45Z"/>
    <path class="cls-1" d="M214.56,249.18c-31.58-28.47-64.48-55.91-98.67-82.23,14.07-8,28.27-15.69,42.57-23.09,20.57,19.3,40.64,38.98,60.2,59.02.23-.11.46-.22.69-.34-3.7-27.78-6.81-55.74-9.33-83.85,13.94-6.4,27.97-12.53,42.09-18.39.06,43.04,1.69,85.78,4.86,128.14-14.25,6.59-28.38,13.5-42.41,20.73Z"/>
    <path class="cls-1" d="M473.73,154.2c-3.23-13.97-6.45-27.94-9.68-41.91-1.2-5.18-2.21-10.55-3.04-16.12-.83-5.56-1.41-10.26-1.76-14.1-.35-3.83-.57-6.27-.68-7.32-.25.06-.5.12-.76.17-2,28.09-3.45,56.14-4.34,84.14-10.14,2.54-20.25,5.22-30.32,8.05-14.73-23.79-29.98-47.35-45.74-70.65-.25.08-.5.15-.75.23.42.96,1.47,3.15,3.11,6.58,1.65,3.43,3.53,7.75,5.64,12.97,2.11,5.22,3.93,10.38,5.46,15.47,4.13,13.73,8.27,27.46,12.4,41.19-11.78,3.54-23.51,7.29-35.18,11.23-12.72-37.68-25.45-75.37-38.17-113.05,19.88-6.71,39.88-12.9,60.01-18.56,12.93,20.2,25.5,40.57,37.71,61.09.24-.06.49-.13.73-.19.46-23.85,1.3-47.74,2.53-71.67,19.55-4.78,39.19-9.08,58.91-12.89,7.56,39.05,15.12,78.1,22.69,117.14-12.95,2.5-25.87,5.24-38.75,8.21Z"/>
    <path class="cls-1" d="M614.72,48.88c10.56,6.94,16.33,18.57,17.6,34.7.16,1.96.31,3.92.47,5.88-24.56,1.95-49.06,4.68-73.48,8.2.94,6.52,3.22,11.22,6.79,14.1,3.57,2.89,8.67,3.87,15.35,3.03,6.07-.77,10.39-2.49,12.98-5.23,2.59-2.74,3.67-6.11,3.23-10.14,11.87-1.31,23.76-2.44,35.66-3.39.87,11.07-2.92,20.04-11.13,27.06-8.23,7.02-20.59,11.37-37.25,13.46-17.49,2.21-31.56.39-42.56-5.84-10.98-6.22-18.02-17.12-20.84-32.95-2.76-15.47.08-28.1,8.85-37.75,8.75-9.63,22.25-15.83,40.23-18.14,18.76-2.39,33.58.1,44.11,7.02ZM557.16,81.49c12.13-1.75,24.29-3.3,36.46-4.66-.53-4.71-2.43-8.28-5.72-10.69-3.3-2.41-7.63-3.3-12.96-2.62-11.95,1.52-17.88,7.61-17.77,17.98Z"/>
    <path class="cls-1" d="M722.29,125.73c-1.03-4.33-2.07-8.67-3.12-13-7.01,10.09-16.96,15.22-30.12,15.63-12.81.41-22.84-3.12-30.33-10.79-7.48-7.67-11.87-19.35-12.94-35.16-1.07-15.68,1.78-27.8,8.78-36.26,6.99-8.45,17.55-13.03,31.48-13.47,11.84-.37,21.56,3.02,28.96,10.02-.11-14.22-.21-28.44-.32-42.66,13.29-.1,26.59.01,39.88.34-1.03,41.9-2.07,83.8-3.1,125.7-9.72-.24-19.44-.35-29.16-.34ZM682.89,76.17c.11,3.06.22,6.12.32,9.19.44,11.79,5.91,17.46,16.43,17.23,5.39-.11,9.4-1.96,12.07-5.57,2.67-3.61,4-8.3,3.96-14.08-.01-1.91-.03-3.82-.04-5.72-.04-5.78-1.46-10.48-4.29-14.1-2.83-3.61-7.06-5.38-12.67-5.26-10.97.24-16.24,6.43-15.8,18.32Z"/>
    <path class="cls-1" d="M779.13,24.66c.35-7.8.71-15.59,1.06-23.39,13.28.6,26.56,1.42,39.82,2.45-.61,7.78-1.21,15.56-1.82,23.34-13.01-1.01-26.03-1.81-39.07-2.4ZM774.49,126.88c1.39-30.49,2.77-60.98,4.16-91.47,12.92.59,25.82,1.38,38.72,2.38-2.37,30.43-4.73,60.86-7.1,91.29-11.91-.92-23.84-1.66-35.77-2.2Z"/>
    <path class="cls-1" d="M946.28,33.92c9.97,8.14,13.75,18.27,11.63,30.22-.14.68-.27,1.36-.41,2.04-13.14-2.61-26.32-5.01-39.52-7.17.04-.23.08-.46.11-.68.56-3.42-.38-6.51-2.84-9.25-2.46-2.74-6.61-4.57-12.42-5.44-5.69-.85-10.16-.72-13.4.35-3.24,1.07-5,2.7-5.29,4.88-.42,3.1,1.33,5.66,5.21,7.72,3.88,2.06,10.22,4.54,18.99,7.55,10.23,3.6,18.51,7.11,24.88,10.42,6.36,3.32,11.58,7.87,15.64,13.6,4.05,5.74,5.26,12.72,3.73,20.9-2.81,13.83-9.88,23.04-20.97,27.89-11.11,4.86-24.7,5.89-41.08,3.4-19.11-2.89-33.6-7.76-43.69-15.15-10.06-7.38-14.49-18.86-12.99-34.63,12.95,1.24,25.89,2.69,38.8,4.37-.77,5.96.37,10.16,3.4,12.61,3.03,2.45,8.01,4.15,14.94,5.17,5.11.76,9.41.9,12.93.41,3.51-.49,5.53-2.32,6.06-5.52.47-2.85-1.05-5.3-4.57-7.33-3.53-2.02-9.43-4.5-17.74-7.33-10.11-3.54-18.48-6.79-25.08-9.85-6.6-3.06-12.19-7.42-16.83-13.14-4.63-5.71-6.57-12.98-5.71-21.84,1.25-12.99,7.86-22.06,20.07-26.94,12.19-4.86,27.28-6.14,44.97-3.52,17.43,2.58,31.23,8.13,41.18,16.25Z"/>
    <path class="cls-1" d="M1075.7,97.12c4.83,9.96,4.72,22.51-.1,37.59-4.78,14.99-11.84,25.19-20.98,30.78-9.16,5.59-19.82,6.57-32.26,3.1-10.7-2.98-18.43-8.57-23.34-16.97-3.48,13.73-6.95,27.46-10.43,41.19-11.3-2.86-22.63-5.53-34-8.01,8.96-40.94,17.93-81.89,26.89-122.83,10.33,2.26,20.64,4.65,30.92,7.19.04,4.48.07,8.95.09,13.42,9.7-7.94,21.68-10.08,35.59-6.21,13.53,3.77,22.78,10.8,27.61,20.75ZM1016.1,99.77c-3.61,2.78-6.11,6.98-7.53,12.58-.47,1.85-.93,3.7-1.4,5.55-1.42,5.61-1.24,10.51.5,14.71,1.74,4.21,5.21,6.98,10.46,8.39,10.24,2.75,16.97-1.5,20.23-12.96.83-2.95,1.67-5.9,2.5-8.84,3.23-11.33-.47-18.55-11.15-21.42-5.46-1.46-10.01-.78-13.62,1.99Z"/>
    <path class="cls-1" d="M1190.29,133.4c7.41,8.22,8.89,17.2,4.68,26.83-4.77,10.91-9.54,21.83-14.3,32.74-.79,1.8-.98,3.49-.57,5.05.4,1.57,1.52,2.75,3.34,3.56,2.05.91,4.1,1.83,6.15,2.75-2.73,6.06-5.46,12.12-8.19,18.19-.43.06-1.45.01-3.06-.14-1.61-.15-3.81-.56-6.59-1.22-2.79-.66-5.85-1.71-9.22-3.16-6.51-2.8-11.48-5.97-14.95-9.58-3.47-3.61-5.35-7.39-5.61-11.36-5.63,1.48-11.49,2.15-17.58,2.03-6.1-.12-12.71-1.51-19.9-4.13-21.18-7.68-29.24-19.17-23.91-35.48,2.79-8.45,7.38-14.1,13.85-16.86,6.46-2.76,14.7-3.33,24.64-1.59,9.94,1.74,22.49,5.46,37.49,11.43.56-1.4,1.11-2.79,1.67-4.19,1.33-3.33,1.04-6.37-.87-9.11-1.91-2.74-4.93-4.92-9.05-6.5-3.75-1.44-7.23-2.07-10.4-1.9-3.17.17-5.24,1.57-6.2,4.17-.08.22-.16.43-.24.65-11.82-4.37-23.7-8.54-35.62-12.52.06-.59.26-1.38.59-2.37,2.74-8.22,9.3-13.31,19.81-15.06,10.5-1.74,24.1.37,40.51,6.67,14.92,5.74,26.13,12.89,33.53,21.09ZM1127.24,162.04c-5.52.22-8.89,2.04-10.12,5.4-1.99,5.44.97,9.58,8.85,12.56,4.52,1.72,8.91,2.12,13.22,1.2,4.3-.92,7.13-3.02,8.46-6.35.96-2.42,1.93-4.83,2.89-7.25-9.98-3.98-17.77-5.78-23.29-5.56Z"/>
    <path class="cls-1" d="M1396.31,208.76c7.09,8.09,11.48,15.8,13.22,23,1.73,7.2.84,13.28-2.57,18.22-.82,1.19-1.64,2.38-2.47,3.57-9.83-6.8-19.74-13.43-29.72-19.9,1.95-3,1.51-6.85-1.37-11.51-2.89-4.66-8.3-9.5-16.25-14.39-7.38-4.54-13.77-6.7-19.09-6.56-5.32.14-8.99,1.99-11.03,5.48-1.81,3.1-2.01,6.13-.6,9.1,1.4,2.97,3.79,5.47,7.2,7.51,5.9,3.54,11.77,7.14,17.62,10.8-3.77,6.03-7.53,12.06-11.3,18.09-6.96-4.35-13.95-8.62-20.98-12.81-3.46-2.06-6.83-2.8-10.08-2.23-3.26.58-5.89,2.62-7.92,6.12-2.38,4.1-2.34,8.43.06,12.99,2.4,4.57,7.67,9.26,15.79,14.24,16.2,9.96,26.97,10.96,32.6,2.31,6.1-9.41,12.2-18.82,18.29-28.24,17.63,11.43,35.03,23.37,52.17,35.83-4.18,5.75-8.36,11.5-12.54,17.26-7.3-5.3-14.65-10.51-22.04-15.63-2.2,3.19-4.41,6.37-6.61,9.56-7.38,10.65-17.27,15.93-29.52,16.18-12.28.26-27.1-5.35-44.98-16.33-18.42-11.29-30.82-22-37.16-32.94-6.34-10.91-7.16-21.01-2.14-30.4,3.27-6.11,7.87-10.45,13.85-12.93,5.97-2.48,12.74-2.83,20.26-1,.11-.2.23-.4.34-.6-4-4.37-6.56-9.41-7.69-15.17-1.13-5.76-.41-11.08,2.22-15.96,2.96-5.49,7.83-9.38,14.66-11.57,6.82-2.19,15.36-2.2,25.56.1,10.19,2.31,21.44,7.11,33.57,14.53,12.01,7.35,21.57,15.18,28.67,23.26Z"/>
  </g>
  <g>
    <path class="cls-1" d="M122.85,1412.86c6.42-24.2,13.22-48.24,20.39-72.12-.23-.13-.46-.27-.69-.4-17.38,17.88-35.1,35.49-53.15,52.84-14.76-9.05-29.37-18.47-43.79-28.28,12.79-39.39,26.7-78.25,41.7-116.52,11.97,8.7,24.09,17.09,36.34,25.18-8.21,21.6-16.11,43.35-23.7,65.25.23.15.46.29.69.44,16.59-16.16,32.9-32.55,48.94-49.15,11.79,7.27,23.7,14.26,35.72,20.98-6.42,22.24-12.51,44.62-18.27,67.13.24.13.47.26.71.38,15.06-17.5,29.85-35.19,44.36-53.06,12.29,6.38,24.67,12.48,37.16,18.3-25.94,31.79-52.95,62.91-80.99,93.31-15.29-7.72-30.44-15.82-45.44-24.29Z"/>
    <path class="cls-1" d="M329.34,1416.71c6.71,10.65,7.72,23.61,2.64,38.99-.62,1.87-1.24,3.73-1.86,5.6-25.18-8.34-50.11-17.65-74.74-27.94-2.54,6.08-2.86,11.34-.92,15.77,1.94,4.43,6.43,8.07,13.45,10.84,6.38,2.51,11.52,3.17,15.38,2.03,3.86-1.14,6.48-3.62,7.89-7.41,12.22,4.55,24.51,8.88,36.86,12.97-3.48,10.53-10.92,17.24-22.51,19.84-11.57,2.59-26.68.54-44.91-6.62-19.15-7.53-32.34-17.56-39.4-29.36-7.08-11.82-7.03-25.07-.27-39.64,6.62-14.27,16.38-22.84,29.02-26.06,12.67-3.23,27.02-1.42,43.52,5.11,17.21,6.8,29.11,15.22,35.84,25.89ZM261.84,1418.39c11.88,4.96,23.84,9.69,35.85,14.19,1.66-4.44,1.52-8.5-.36-12.19-1.89-3.69-5.38-6.51-10.48-8.51-11.4-4.5-19.68-2.42-25.01,6.51Z"/>
    <path class="cls-1" d="M368.3,1407.97c2.31-7.45,4.62-14.91,6.93-22.36,11.68,3.62,23.42,7.01,35.2,10.18-2.03,7.54-4.06,15.07-6.08,22.61-12.07-3.24-24.09-6.72-36.05-10.43ZM338.01,1505.71c9.04-29.16,18.07-58.31,27.11-87.47,12.09,3.75,24.24,7.26,36.44,10.54-7.93,29.48-15.87,58.95-23.8,88.43-13.3-3.58-26.56-7.41-39.75-11.49Z"/>
    <path class="cls-1" d="M530.09,1453.63c-4.32,3.27-10.46,5.3-18.41,5.97,3.27,3.07,5.72,6.43,7.33,10.1,1.61,3.68,2.18,7.4,1.65,11.18-1.33,9.61-6.46,16.34-15.53,20-9.06,3.66-19.93,4.43-32.42,2.16-4.99-.91-9.98-1.85-14.96-2.83-8.26-1.63-12.72-.87-13.41,2.41-.33,1.59.32,3.05,1.97,4.4,1.65,1.34,4.79,2.49,9.43,3.4,11.92,2.34,23.86,4.48,35.84,6.42,11.7,1.89,20.17,5.77,25.5,11.86,5.33,6.09,7.5,13.52,6.37,22.36-.83,6.53-3.62,11.9-8.42,16.04-4.8,4.14-10.97,6.91-18.49,8.25-7.51,1.34-15.52,1.3-23.94-.13-20.64-3.51-41.2-7.6-61.66-12.26-5.01-1.14-9.41-3.19-13.18-6.12-3.77-2.93-6.46-6.37-8.1-10.3-1.64-3.93-1.93-7.91-.9-11.94,1.11-4.37,3.75-7.9,7.85-10.63,4.11-2.73,8.78-4.41,14.02-5.07-2.75-2.67-4.73-5.59-5.92-8.74-1.2-3.15-1.39-6.3-.61-9.44,1.09-4.38,3.97-7.86,8.6-10.48,4.63-2.63,9.86-3.91,15.71-3.88-4.41-3.97-7.64-8.15-9.71-12.51-2.07-4.36-2.58-8.57-1.59-12.61,2.54-10.34,9.02-16.54,19.27-18.87,10.27-2.33,22.91-1.89,38.15,1.03,6.69,1.28,12.03,2.58,16.02,3.98,6.71-2.47,11.16-5.06,13.43-7.68,2.26-2.62,3.48-4.56,3.68-5.82,10.06,1.6,20.13,3.04,30.22,4.33-.89,7-3.47,12.15-7.79,15.42ZM432.85,1532.72c-2.26.99-3.68,2.78-4.25,5.38-.56,2.6,0,4.91,1.72,6.93,1.71,2.02,4.09,3.35,7.11,3.97,10.71,2.21,21.44,4.26,32.2,6.16,3.03.53,5.76.21,8.15-.97,2.39-1.18,3.8-3.08,4.24-5.71.44-2.63-.25-4.85-2.04-6.67-1.79-1.83-4.25-3.01-7.37-3.56-10.59-1.86-21.16-3.88-31.71-6.06-3.11-.64-5.79-.47-8.05.52ZM459.97,1461.92c-3.04,1.39-4.95,3.89-5.7,7.51-.77,3.74-.11,6.8,2.02,9.17,2.12,2.38,5.52,4.03,10.16,4.92,4.64.89,8.47.62,11.45-.78,2.98-1.4,4.79-3.99,5.46-7.75.66-3.76-.15-6.81-2.4-9.15-2.26-2.35-5.65-3.94-10.19-4.8-4.16-.8-7.75-.51-10.8.88Z"/>
    <path class="cls-1" d="M600.98,1462.38c5.54-1.68,11.24-2.39,17.14-2.12,11.55.52,20.12,3.67,25.84,9.68,5.71,6,8.59,14.52,8.48,25.62-.21,19.77-.42,39.54-.63,59.31-13.67-.15-27.35-.55-41.01-1.2.88-18.36,1.76-36.72,2.65-55.09.19-3.92-.8-7.12-2.94-9.61-2.14-2.48-5.26-3.84-9.38-4.08-4.76-.29-8.71.83-11.88,3.39-3.17,2.55-4.93,5.84-5.23,9.87-1.36,17.87-2.73,35.74-4.09,53.61-13.64-1.04-27.27-2.33-40.88-3.88,4.75-41.64,9.49-83.28,14.24-124.93,12.05,1.37,24.12,2.51,36.2,3.43-1.11,14.53-2.22,29.05-3.32,43.58,4.34-3.38,9.27-5.9,14.81-7.58Z"/>
    <path class="cls-1" d="M741.74,1460.33c.61,7.78,1.21,15.56,1.82,23.34-7.2.56-14.41,1.04-21.62,1.45.66,11.6,1.32,23.2,1.97,34.8.23,4.16,1.21,7.14,2.93,8.95,1.72,1.81,4.74,2.59,9.05,2.3,3.77-.25,7.53-.52,11.3-.82.52,6.74,1.05,13.49,1.57,20.23-3.22,1.18-7.41,2.24-12.59,3.16-5.18.92-9.71,1.47-13.56,1.68-12.11.65-21.52-.89-28.12-4.41-6.62-3.52-9.96-9.77-10.12-18.67-.29-15.26-.59-30.52-.88-45.78-4.77.09-9.54.15-14.31.18-.04-7.8-.08-15.61-.13-23.41,5.17-.03,10.33-.1,15.5-.2,2.52-9.3,4.96-18.62,7.32-27.94,9.06-.26,18.12-.65,27.18-1.16.52,9.23,1.05,18.47,1.57,27.7,7.05-.4,14.09-.87,21.13-1.42Z"/>
    <path class="cls-1" d="M819.8,1423.11c13.4-2.16,26.77-4.6,40.09-7.32,5.93,29,11.85,58,17.78,87,23.21-4.74,46.29-10.25,69.21-16.54,2.7,9.81,5.39,19.62,8.09,29.43-38.33,10.53-77.12,18.93-116.16,25.22-6.34-39.27-12.68-78.53-19.02-117.79Z"/>
    <path class="cls-1" d="M1037.85,1402.3c12.54,3.8,21.94,12.73,27.91,27.16,5.97,14.41,5.54,27.49-1.71,39.13-7.23,11.62-20.1,20.93-38.41,27.31-18.32,6.37-34.08,7.05-46.8,2.44-12.75-4.61-21.13-14.65-25.45-29.76-4.31-15.13-2.59-27.97,4.77-38.64,7.38-10.69,19.31-18.65,36.02-24.46,16.7-5.81,31.11-6.98,43.67-3.18ZM989.84,1452.33c1.02,3.13,2.05,6.26,3.07,9.4,4,12.3,12.37,16.44,25.03,12.05,12.78-4.46,16.87-12.94,12.36-25.07-1.14-3.09-2.28-6.18-3.42-9.27-4.55-12.26-12.86-16.09-25.01-11.85-12.04,4.17-16.07,12.31-12.03,24.74Z"/>
    <path class="cls-1" d="M1142.65,1348.1c10.7-.31,18.54,3.79,23.43,12.59-10.79,5.99-21.66,11.78-32.6,17.36-1.52-2.99-4.13-4.31-7.81-4.01-2.64.03-5.54.84-8.73,2.41-8.49,4.17-11.92,7.95-10.24,11.51.94,1.98,3.1,2.69,6.5,2.08,3.39-.6,8.72-2.09,15.98-4.56,8.86-3.14,16.42-5.55,22.73-7.12,6.3-1.57,12.47-1.76,18.55-.55,6.07,1.21,10.89,4.9,14.38,11.16,5.7,10.18,5.19,20.05-1.81,29.49-6.99,9.42-18.24,18.16-33.69,25.75-8.86,4.36-17.76,7.32-26.6,8.91-8.84,1.59-16.71,1.25-23.56-.93-6.85-2.18-11.67-6.67-14.54-13.36,11.58-4.96,23.1-10.14,34.54-15.52.1.21.2.42.3.63,1.8,3.5,4.74,5.15,8.84,4.93,4.09-.23,8.08-1.29,11.93-3.18,10.31-5.08,14.39-9.76,12.34-13.76-1.05-2.06-3.41-2.73-7.06-2.05-3.65.68-9.34,2.31-17.09,4.78-9.32,2.98-17.13,4.95-23.41,6.05-6.28,1.09-12.31.77-18.04-.94-5.74-1.71-9.95-5.79-12.7-12.16-4.43-10.31-3.17-19.51,3.55-27.71,6.73-8.21,16.87-15.49,30.5-22.21,12.24-6.04,23.59-9.27,34.3-9.57Z"/>
    <path class="cls-1" d="M1245.09,1284.98c10.72-1.67,19.08,1.42,24.98,9.57-10.18,7.36-20.47,14.51-30.85,21.46-1.87-2.79-4.64-3.78-8.3-3.01-2.65.37-5.48,1.54-8.5,3.5-8.06,5.23-11.09,9.42-9,12.75,1.17,1.86,3.42,2.29,6.76,1.26,3.34-1.03,8.53-3.18,15.55-6.56,8.55-4.25,15.89-7.61,22.06-9.98,6.16-2.37,12.34-3.34,18.59-2.91,6.25.43,11.5,3.5,15.72,9.3,6.87,9.43,7.45,19.35,1.47,29.66-5.98,10.29-16.32,20.43-30.99,29.95-8.42,5.46-17.03,9.53-25.73,12.22-8.71,2.69-16.65,3.33-23.77,2.01-7.13-1.32-12.47-5.19-16.1-11.51,11.07-6.37,22.05-12.96,32.95-19.76.12.2.24.39.37.59,2.2,3.26,5.34,4.54,9.43,3.8,4.09-.74,7.97-2.3,11.63-4.67,9.8-6.36,13.38-11.54,10.86-15.27-1.29-1.92-3.73-2.29-7.32-1.16-3.6,1.14-9.13,3.48-16.64,6.92-9.04,4.14-16.66,7.08-22.84,8.96-6.19,1.87-12.28,2.3-18.23,1.31-5.95-.99-10.64-4.53-14.12-10.54-5.61-9.72-5.38-19.03.45-28.04,5.84-9.02,15.21-17.54,28.16-25.95,11.63-7.56,22.68-12.22,33.42-13.89Z"/>
  </g>
</svg>